<svg width="24" height="24" viewBox="0 0 24 24" fill="none" xmlns="http://www.w3.org/2000/svg">
<path d="M11.9767 12.9506C14.3767 12.9506 16.3014 11.0021 16.3014 8.62586C16.3014 6.24962 14.3767 4.27734 11.9767 4.27734C9.57667 4.27734 7.65192 6.22586 7.65192 8.6021C7.65192 10.9783 9.57667 12.9506 11.9767 12.9506ZM11.9767 5.41794C13.7351 5.41794 15.1608 6.84368 15.1608 8.6021C15.1608 10.3605 13.7351 11.7863 11.9767 11.7863C10.2183 11.7863 8.79251 10.3843 8.79251 8.62586C8.79251 6.86744 10.2183 5.41794 11.9767 5.41794ZM4.46776 19.7229H19.5331C19.842 19.7229 20.1034 19.4615 20.1034 19.1526C20.1034 16.1585 17.6559 13.711 14.6618 13.711H9.33905C6.34499 13.711 3.89746 16.1585 3.89746 19.1526C3.89746 19.4615 4.15885 19.7229 4.46776 19.7229ZM9.33905 14.8516H14.6618C16.848 14.8516 18.6301 16.4674 18.9153 18.5823H5.08558C5.37073 16.4674 7.15291 14.8516 9.33905 14.8516Z" fill="#8F8F8F"/>
</svg>
