<svg width="24" height="24" viewBox="0 0 24 24" fill="none" xmlns="http://www.w3.org/2000/svg">
<g clip-path="url(#clip0_552_46)">
<path d="M20.5026 3.48769C18.2464 1.23993 15.2464 0.00137141 12.0502 0C5.46373 0 0.103689 5.33475 0.101052 11.8919C0.100284 13.9879 0.650368 16.034 1.69593 17.8375L0.000732422 24L6.33509 22.3464C8.08033 23.294 10.0454 23.7933 12.045 23.7941H12.0501H12.0502C18.6355 23.7941 23.9964 18.4584 23.9992 11.9016C24.0003 8.72364 22.7584 5.73561 20.5026 3.48769ZM12.0502 21.7855H12.0463C10.2639 21.7846 8.51599 21.3081 6.9914 20.4075L6.62857 20.1933L2.86963 21.1745L3.87322 17.527L3.63682 17.1531C2.64258 15.5792 2.11771 13.7603 2.11846 11.8927C2.12064 6.44257 6.5757 2.00867 12.0539 2.00867C14.7068 2.00976 17.2001 3.03926 19.0754 4.90753C20.9505 6.77579 21.9824 9.25937 21.9816 11.9007C21.9793 17.351 17.5241 21.7855 12.0502 21.7855Z" fill="#E0E0E0"/>
<path d="M0.549316 23.3163L2.16708 17.4353C1.16902 15.7141 0.644165 13.7614 0.644795 11.7615C0.647412 5.504 5.76265 0.413086 12.0477 0.413086C15.0981 0.414457 17.9611 1.59638 20.1137 3.74152C22.2668 5.88664 23.4518 8.73798 23.4505 11.7704C23.4479 18.0281 18.3324 23.1194 12.0481 23.1194C12.0484 23.1194 12.0477 23.1194 12.0481 23.1194H12.0431C10.1347 23.1188 8.25961 22.6419 6.59421 21.7382L0.549316 23.3163Z" fill="url(#paint0_linear_552_46)"/>
<path fill-rule="evenodd" clip-rule="evenodd" d="M9.09741 6.84321C8.87634 6.35387 8.64359 6.34408 8.43327 6.33551C8.26124 6.32817 8.0643 6.32862 7.86768 6.32862C7.6709 6.32862 7.35113 6.40224 7.08071 6.69627C6.81014 6.9903 6.04761 7.70111 6.04761 9.14675C6.04761 10.5925 7.10531 11.9895 7.25274 12.1857C7.40032 12.3817 9.2945 15.4432 12.2943 16.6209C14.7875 17.5998 15.2948 17.4051 15.836 17.3561C16.3771 17.3071 17.5821 16.6454 17.8281 15.9593C18.074 15.2732 18.074 14.6852 18.0002 14.5623C17.9264 14.4398 17.7297 14.3664 17.4345 14.2194C17.1393 14.0725 15.6884 13.3615 15.4178 13.2636C15.1472 13.1656 14.9504 13.1166 14.7537 13.4108C14.5569 13.7047 13.9916 14.3664 13.8194 14.5623C13.6472 14.7586 13.475 14.7831 13.1799 14.6362C12.8847 14.4888 11.9341 14.1788 10.8065 13.1778C9.92913 12.3991 9.33677 11.4372 9.16459 11.1431C8.99241 10.8492 9.14613 10.69 9.29419 10.5435C9.4267 10.4119 9.58936 10.2005 9.73695 10.0289C9.88422 9.85736 9.93341 9.73491 10.0318 9.53899C10.1302 9.34276 10.081 9.1712 10.0072 9.02426C9.93341 8.87733 9.35984 7.42422 9.09741 6.84321Z" fill="white"/>
<path d="M20.4049 3.44987C18.1747 1.22791 15.2091 0.00358827 12.0496 0.00219727C5.53871 0.00219727 0.240203 5.2757 0.237586 11.7576C0.236819 13.8296 0.780585 15.8521 1.81414 17.6349L0.138428 23.7267L6.40008 22.092C8.1253 23.0287 10.0678 23.5223 12.0445 23.5231H12.0495H12.0496C18.5593 23.5231 23.8586 18.2487 23.8614 11.7671C23.8625 8.62571 22.6349 5.67198 20.4049 3.44987ZM12.0496 21.5376H12.0457C10.2838 21.5367 8.55592 21.0658 7.04885 20.1754L6.69017 19.9637L2.97439 20.9337L3.96644 17.3281L3.73276 16.9584C2.74994 15.4026 2.23108 13.6046 2.23185 11.7584C2.23399 6.37085 6.63791 1.98784 12.0533 1.98784C14.6757 1.98892 17.1404 3.00661 18.9941 4.85343C20.8477 6.70025 21.8677 9.1553 21.867 11.7664C21.8647 17.154 17.4606 21.5376 12.0496 21.5376Z" fill="white"/>
</g>
<defs>
<linearGradient id="paint0_linear_552_46" x1="11.9999" y1="23.3163" x2="11.9999" y2="0.413124" gradientUnits="userSpaceOnUse">
<stop stop-color="#20B038"/>
<stop offset="1" stop-color="#60D66A"/>
</linearGradient>
<clipPath id="clip0_552_46">
<rect width="24" height="24" fill="white"/>
</clipPath>
</defs>
</svg>
