<svg width="24" height="24" viewBox="0 0 24 24" fill="none" xmlns="http://www.w3.org/2000/svg">
<path d="M22.7812 18.4031C22.7812 20.8111 20.8111 22.7812 18.4031 22.7812H5.59692C3.18891 22.7812 1.21875 20.8111 1.21875 18.4031V5.59692C1.21875 3.18895 3.18891 1.21875 5.59692 1.21875H18.4031C20.8111 1.21875 22.7812 3.18895 22.7812 5.59692V18.4031Z" fill="#41464A"/>
<path d="M13.6137 10.9249L18.8004 4.46036H17.298L12.8627 9.98879L8.42695 4.46036H3.47461L10.3863 13.075L5.19914 19.54H6.70148L11.1373 14.0111L15.5735 19.54H20.5259L13.6137 10.9249ZM5.9168 5.63219H7.86445L18.0832 18.3681H16.1355L5.9168 5.63219Z" fill="#F0F0F1"/>
</svg>
